<svg width="1170" height="322" viewBox="0 0 1170 322" fill="none" xmlns="http://www.w3.org/2000/svg">
<g opacity="0.25">
<path d="M-0.117188 198.84C13.7382 198.84 119.039 317.996 258.385 317.996C451.964 317.996 556.191 -116.079 828.83 5.26076C1044.97 101.457 1139.98 111.749 1179.57 44.8476" stroke="#BECED8"/>
<path d="M-0.117188 95.9145C12.1547 105.019 119.039 317.996 258.385 317.996C451.964 317.996 587.86 -68.5745 860.499 52.7649C1076.64 148.961 1110.69 133.522 1179.57 84.4344" stroke="#BECED8"/>
<path d="M-0.117188 262.179C13.7382 262.179 119.039 321.163 258.385 321.163C451.964 321.163 558.452 -186.925 812.995 -31.1592C998.657 82.4548 1108.31 127.584 1179.57 76.5169" stroke="#BECED8"/>
</g>
</svg>
